<svg width="396" height="345" viewBox="0 0 396 345" fill="none" xmlns="http://www.w3.org/2000/svg">
<g filter="url(#filter0_bd_19_143)">
<path d="M313.5 142.5C313.5 230.5 263 280.251 175.5 302C113.184 317.489 43.8726 304.335 9.53731e-05 284.799C-0.000149721 272 0.000174528 256 1.24034e-05 248L9.53731e-05 1.96526e-05L302.5 1.13079e-05L357.752 1.96526e-05C330.568 26.5087 313.5 72.0776 313.5 142.5Z" fill="white"/>
<path d="M313.5 142.5C313.5 230.5 263 280.251 175.5 302C113.184 317.489 43.8726 304.335 9.53731e-05 284.799C-0.000149721 272 0.000174528 256 1.24034e-05 248L9.53731e-05 1.96526e-05L302.5 1.13079e-05L357.752 1.96526e-05C330.568 26.5087 313.5 72.0776 313.5 142.5Z" stroke="white" stroke-width="2"/>
</g>
<defs>
<filter id="filter0_bd_19_143" x="-26" y="-26" width="421.21" height="370.811" filterUnits="userSpaceOnUse" color-interpolation-filters="sRGB">
<feFlood flood-opacity="0" result="BackgroundImageFix"/>
<feGaussianBlur in="BackgroundImageFix" stdDeviation="10"/>
<feComposite in2="SourceAlpha" operator="in" result="effect1_backgroundBlur_19_143"/>
<feColorMatrix in="SourceAlpha" type="matrix" values="0 0 0 0 0 0 0 0 0 0 0 0 0 0 0 0 0 0 127 0" result="hardAlpha"/>
<feOffset dx="5" dy="5"/>
<feGaussianBlur stdDeviation="15"/>
<feComposite in2="hardAlpha" operator="out"/>
<feColorMatrix type="matrix" values="0 0 0 0 0 0 0 0 0 0 0 0 0 0 0 0 0 0 0.25 0"/>
<feBlend mode="normal" in2="effect1_backgroundBlur_19_143" result="effect2_dropShadow_19_143"/>
<feBlend mode="normal" in="SourceGraphic" in2="effect2_dropShadow_19_143" result="shape"/>
</filter>
</defs>
</svg>
