<svg width="604" height="672" viewBox="0 0 604 672" fill="none" xmlns="http://www.w3.org/2000/svg">
<g filter="url(#filter0_bd_19_136)">
<path d="M30.2729 375.886C40.7268 320.947 86.2106 242.535 195.089 198.584C286.057 161.863 325.833 65.3498 338.885 0H604V408.64C565.583 435.821 535.097 464.675 522.849 476.399C449.806 546.321 431.701 606.811 337.431 629.354C246.906 651.001 123.041 608.127 78.3447 558.807C24.0306 498.874 20.4921 427.287 30.2729 375.886Z" fill="white"/>
<path d="M30.2729 375.886C40.7268 320.947 86.2106 242.535 195.089 198.584C286.057 161.863 325.833 65.3498 338.885 0H604V408.64C565.583 435.821 535.097 464.675 522.849 476.399C449.806 546.321 431.701 606.811 337.431 629.354C246.906 651.001 123.041 608.127 78.3447 558.807C24.0306 498.874 20.4921 427.287 30.2729 375.886Z" stroke="white" stroke-width="2"/>
</g>
<defs>
<filter id="filter0_bd_19_136" x="0.000488281" y="-26" width="640" height="697.112" filterUnits="userSpaceOnUse" color-interpolation-filters="sRGB">
<feFlood flood-opacity="0" result="BackgroundImageFix"/>
<feGaussianBlur in="BackgroundImageFix" stdDeviation="10"/>
<feComposite in2="SourceAlpha" operator="in" result="effect1_backgroundBlur_19_136"/>
<feColorMatrix in="SourceAlpha" type="matrix" values="0 0 0 0 0 0 0 0 0 0 0 0 0 0 0 0 0 0 127 0" result="hardAlpha"/>
<feOffset dx="5" dy="5"/>
<feGaussianBlur stdDeviation="15"/>
<feComposite in2="hardAlpha" operator="out"/>
<feColorMatrix type="matrix" values="0 0 0 0 0 0 0 0 0 0 0 0 0 0 0 0 0 0 0.25 0"/>
<feBlend mode="normal" in2="effect1_backgroundBlur_19_136" result="effect2_dropShadow_19_136"/>
<feBlend mode="normal" in="SourceGraphic" in2="effect2_dropShadow_19_136" result="shape"/>
</filter>
</defs>
</svg>
