<svg width="234" height="199" viewBox="0 0 234 199" fill="none" xmlns="http://www.w3.org/2000/svg">
<g filter="url(#filter0_bd_19_144)">
<path d="M185 30.5C185 78 197.625 102.5 169.5 140C135.915 184.779 52.9151 155.923 -0.135254 118V62.5L-0.13517 -0.158669L145 -0.158691L196.5 -0.158669C189.808 8.66938 185 18.9452 185 30.5Z" fill="white"/>
<path d="M185 30.5C185 78 197.625 102.5 169.5 140C135.915 184.779 52.9151 155.923 -0.135254 118V62.5L-0.13517 -0.158669L145 -0.158691L196.5 -0.158669C189.808 8.66938 185 18.9452 185 30.5Z" stroke="white" stroke-width="2"/>
</g>
<defs>
<filter id="filter0_bd_19_144" x="-26.1353" y="-26.1587" width="259.648" height="224.902" filterUnits="userSpaceOnUse" color-interpolation-filters="sRGB">
<feFlood flood-opacity="0" result="BackgroundImageFix"/>
<feGaussianBlur in="BackgroundImageFix" stdDeviation="10"/>
<feComposite in2="SourceAlpha" operator="in" result="effect1_backgroundBlur_19_144"/>
<feColorMatrix in="SourceAlpha" type="matrix" values="0 0 0 0 0 0 0 0 0 0 0 0 0 0 0 0 0 0 127 0" result="hardAlpha"/>
<feOffset dx="5" dy="5"/>
<feGaussianBlur stdDeviation="15"/>
<feComposite in2="hardAlpha" operator="out"/>
<feColorMatrix type="matrix" values="0 0 0 0 0 0 0 0 0 0 0 0 0 0 0 0 0 0 0.25 0"/>
<feBlend mode="normal" in2="effect1_backgroundBlur_19_144" result="effect2_dropShadow_19_144"/>
<feBlend mode="normal" in="SourceGraphic" in2="effect2_dropShadow_19_144" result="shape"/>
</filter>
</defs>
</svg>
